<svg width="312" height="108" xmlns="http://www.w3.org/2000/svg" xmlns:xlink="http://www.w3.org/1999/xlink" xml:space="preserve" overflow="hidden"><g transform="translate(-382 -293)"><path d="M59.6477 9.01651 46.3706 22.2936C45.6771 22.9872 44.5872 22.9872 43.9927 22.2936L30.7156 9.01651C30.022 8.32294 28.9321 8.32294 28.3376 9.01651L22.8881 14.4661C22.1945 15.1596 22.1945 16.2495 22.8881 16.844L42.7046 36.6606C43.9927 37.9486 46.1725 37.9486 47.4606 36.6606L67.4752 16.844C68.1688 16.1505 68.1688 15.0606 67.4752 14.4661L62.0257 9.01651C61.3321 8.32294 60.2422 8.32294 59.6477 9.01651Z" fill="#0082CA" transform="matrix(1.04963 0 0 1 382 293.05)"/><path d="M67.4752 76.9872 62.0257 71.5376C61.3321 70.844 60.2422 70.844 59.6477 71.5376L46.3706 84.8147C45.6771 85.5083 44.5872 85.5083 43.9927 84.8147L30.7156 71.5376C30.022 70.844 28.9321 70.844 28.3376 71.5376L22.8881 76.9872C22.1945 77.6807 22.1945 78.7706 22.8881 79.3651L37.3541 93.8312 37.3541 93.8312 42.8037 99.2807C44.0917 100.569 46.2716 100.569 47.5596 99.2807L53.0092 93.8312 53.0092 93.8312 67.3762 79.4642C68.0697 78.7706 68.0697 77.6807 67.4752 76.9872Z" fill="#0082CA" transform="matrix(1.04963 0 0 1 382 293.05)"/><path d="M12.6826 24.6716 7.23303 30.1211C6.53945 30.8147 6.53945 31.9046 7.23303 32.4991L20.5101 45.7761C21.2037 46.4697 21.2037 47.5596 20.5101 48.1541L7.23303 61.3321C6.53945 62.0257 6.53945 63.1156 7.23303 63.7101L12.6826 69.1596C13.3761 69.8532 14.4661 69.8532 15.0606 69.1596L34.8771 49.3431C36.1651 48.055 36.1651 45.8752 34.8771 44.5872L15.0606 24.6716C14.4661 23.978 13.3761 23.978 12.6826 24.6716Z" fill="#0082CA" transform="matrix(1.04963 0 0 1 382 293.05)"/><path d="M83.0312 30.1211 77.5817 24.6716C76.8881 23.978 75.7982 23.978 75.2037 24.6716L55.3872 44.4881C54.0991 45.7761 54.0991 47.956 55.3872 49.244L75.2037 69.0605C75.8972 69.7541 76.9872 69.7541 77.5817 69.0605L83.0312 63.611C83.7248 62.9174 83.7248 61.8275 83.0312 61.233L69.8532 48.1541C69.1596 47.4606 69.1596 46.3706 69.8532 45.7761L83.1303 32.4991C83.7248 31.8055 83.7248 30.7156 83.0312 30.1211Z" fill="#0082CA" transform="matrix(1.04963 0 0 1 382 293.05)"/><path d="M144.958 67.2771C143.868 67.6734 142.58 68.0697 141.094 68.4661 139.607 68.8624 137.923 69.2587 136.239 69.556 134.554 69.9523 132.771 70.1505 130.987 70.3486 129.204 70.5468 127.42 70.6459 125.637 70.6459 122.367 70.6459 119.196 70.3486 116.125 69.8532 113.053 69.3578 110.477 68.2679 108.099 66.6826 105.82 65.0972 103.938 62.8184 102.65 59.8459 101.262 56.8734 100.569 52.811 100.569 47.7578L100.569 19.6183C101.956 19.3211 103.343 19.1229 104.73 18.9248 106.117 18.8257 107.505 18.7266 108.793 18.7266 109.982 18.7266 111.369 18.8257 112.756 18.9248 114.143 19.0239 115.53 19.3211 116.917 19.6183L116.917 46.4697C116.917 50.3339 117.611 53.0092 118.8 54.3963 120.088 55.7835 122.07 56.5761 124.646 56.5761 125.736 56.5761 126.528 56.5761 127.123 56.4771 127.717 56.378 128.114 56.378 128.411 56.2789L128.411 19.6183C129.798 19.3211 131.284 19.1229 132.572 18.9248 133.96 18.8257 135.347 18.7266 136.635 18.7266 137.824 18.7266 139.211 18.8257 140.598 18.9248 141.985 19.0239 143.372 19.3211 144.76 19.6183L144.958 67.2771 144.958 67.2771Z" fill="#191939" transform="matrix(1.04963 0 0 1 382 293.05)"/><path d="M158.136 33.1927C157.839 31.9046 157.64 30.7156 157.541 29.5266 157.442 28.4367 157.442 27.3468 157.442 26.2569 157.442 25.167 157.541 24.1761 157.541 23.0862 157.64 21.9963 157.839 20.8073 158.136 19.5193L184.095 19.5193 184.095 50.2349C184.095 53.9009 183.6 57.0716 182.51 59.6477 181.42 62.2239 179.934 64.4037 178.051 65.989 176.169 67.5743 173.89 68.7633 171.413 69.556 168.837 70.3486 166.062 70.6459 163.189 70.6459 162.198 70.6459 160.811 70.5468 159.127 70.3486 157.343 70.1505 155.461 69.6551 153.578 69.0605 153.479 68.5651 153.479 68.0697 153.479 67.5743 153.479 67.0789 153.38 66.5835 153.38 66.0881 153.38 64.4037 153.578 62.7193 153.875 61.0349 154.172 59.3505 154.668 57.567 155.262 55.7835 155.56 55.8826 155.857 55.9817 156.451 55.9817 156.947 56.0807 157.541 56.1798 158.136 56.1798 158.73 56.2789 159.325 56.2789 159.919 56.378 160.514 56.4771 160.91 56.4771 161.207 56.4771 161.901 56.4771 162.694 56.4771 163.486 56.2789 164.279 56.1798 165.072 55.8826 165.666 55.3872 166.36 54.8917 166.855 54.1982 167.35 53.2073 167.846 52.2165 167.945 50.9284 167.945 49.145L167.945 33.1927 158.136 33.1927 158.136 33.1927Z" fill="#191939" transform="matrix(1.04963 0 0 1 382 293.05)"/><path d="M191.824 44.5872C191.824 40.7229 192.418 37.156 193.508 33.9853 194.598 30.8147 196.183 28.0404 198.363 25.7615 200.444 23.4826 203.119 21.6991 206.191 20.411 209.262 19.1229 212.829 18.4294 216.793 18.4294 218.18 18.4294 219.468 18.4294 220.657 18.5284 221.846 18.6275 223.035 18.7266 224.323 18.9248 225.512 19.1229 226.701 19.4202 227.989 19.8165 229.277 20.2128 230.664 20.7083 232.15 21.3028 232.25 23.4826 232.051 25.6624 231.556 27.8422 231.061 30.022 230.268 32.1028 229.178 34.1835 228.088 33.7872 227.097 33.4899 226.206 33.2917 225.314 33.0936 224.521 32.8954 223.728 32.7963 222.936 32.6973 222.143 32.5982 221.45 32.5982 220.657 32.5982 219.864 32.5982 219.072 32.5982 216 32.5982 213.424 33.4899 211.343 35.3725 209.262 37.156 208.272 40.4257 208.272 44.8844 208.272 47.2624 208.569 49.244 209.163 50.8294 209.758 52.4147 210.55 53.6037 211.541 54.5945 212.532 55.4862 213.721 56.1798 215.009 56.5761 216.297 56.9725 217.783 57.1706 219.171 57.1706 221.053 57.1706 222.639 56.9725 224.026 56.6752 225.413 56.378 226.998 55.8826 228.881 55.0899 229.971 56.8734 230.862 58.756 231.457 60.9358 232.051 63.1156 232.448 65.5927 232.448 68.367 229.475 69.556 226.8 70.2495 224.323 70.5468 221.846 70.844 219.468 71.0422 216.991 71.0422 212.829 71.0422 209.262 70.4477 206.092 69.2587 202.921 68.0697 200.246 66.2862 198.066 64.0073 195.886 61.7284 194.301 58.9541 193.211 55.7835 192.319 52.2165 191.824 48.6495 191.824 44.5872Z" fill="#191939" transform="matrix(1.04963 0 0 1 382 293.05)"/><path d="M270.198 19.6183C270.694 19.5193 271.783 19.3211 273.369 19.222 274.954 19.1229 276.639 19.0239 278.323 19.0239 280.404 19.0239 282.385 19.1229 284.268 19.222 286.15 19.3211 287.339 19.5193 288.132 19.6183L269.108 69.3578C267.721 69.6551 266.334 69.8532 265.046 69.9523 263.659 70.0514 262.272 70.1505 261.083 70.1505 259.894 70.1505 258.506 70.0514 257.119 69.9523 255.732 69.8532 254.543 69.6551 253.453 69.3578L234.826 19.6183C235.519 19.5193 236.807 19.3211 238.69 19.222 240.572 19.1229 242.554 19.0239 244.635 19.0239 246.319 19.0239 248.004 19.1229 249.688 19.222 251.372 19.3211 252.462 19.5193 252.958 19.6183L261.776 49.5413C263.262 44.5872 264.65 39.5339 266.037 34.4807 267.424 29.4275 268.811 24.3743 270.198 19.6183Z" fill="#191939" transform="matrix(1.04963 0 0 1 382 293.05)"/><path d="M281.395 65.1963C281.395 63.1156 282.98 61.7284 284.763 61.7284 286.547 61.7284 288.132 63.1156 288.132 65.1963 288.132 67.2771 286.547 68.6642 284.763 68.6642 282.98 68.6642 281.395 67.2771 281.395 65.1963ZM284.763 67.5743C285.952 67.5743 287.042 66.6826 287.042 65.1963 287.042 63.7101 286.051 62.8184 284.763 62.8184 283.574 62.8184 282.484 63.7101 282.484 65.1963 282.484 66.5835 283.475 67.5743 284.763 67.5743ZM283.574 63.5119 284.862 63.5119C285.655 63.5119 285.952 63.9083 285.952 64.6018 285.952 65.0972 285.754 65.3945 285.358 65.6917L286.15 66.7817 285.358 66.7817 284.664 65.7908 284.367 65.7908 284.367 66.7817 283.574 66.7817 283.574 63.5119ZM284.763 64.9982C284.961 64.9982 285.259 64.8991 285.259 64.6018 285.259 64.3046 285.061 64.2055 284.763 64.2055L284.367 64.2055 284.367 64.9982 284.763 64.9982Z" fill="#191939" transform="matrix(1.04963 0 0 1 382 293.05)"/><path d="M100.767 86.4 100.767 81.2477 101.758 81.2477 101.758 86.4C101.758 87.7872 102.65 88.4807 103.64 88.4807 104.631 88.4807 105.523 87.7872 105.523 86.4L105.523 81.2477 106.514 81.2477 106.514 86.4C106.514 88.2826 105.226 89.3725 103.64 89.3725 101.956 89.3725 100.767 88.2826 100.767 86.4Z" fill="#191939" transform="matrix(1.04963 0 0 1 382 293.05)"/><path d="M108.297 83.3284 109.288 83.3284 109.288 84.3193C109.585 83.7248 110.279 83.2294 111.27 83.2294 112.459 83.2294 113.549 84.022 113.549 85.8055L113.549 89.2734 112.558 89.2734 112.558 85.9046C112.558 84.7156 111.864 84.1211 110.873 84.1211 109.883 84.1211 109.189 84.7156 109.189 85.9046L109.189 89.2734 108.198 89.2734C108.297 89.2734 108.297 83.3284 108.297 83.3284Z" fill="#191939" transform="matrix(1.04963 0 0 1 382 293.05)"/><path d="M115.332 81.1486 116.323 81.1486 116.323 82.0404 115.332 82.0404 115.332 81.1486ZM115.332 83.3284 116.323 83.3284 116.323 89.1743 115.332 89.1743 115.332 83.3284Z" fill="#191939" transform="matrix(1.04963 0 0 1 382 293.05)"/><path d="M117.611 83.3284 118.602 83.3284 120.583 88.0844 122.565 83.3284 123.556 83.3284 121.079 89.1743 120.187 89.1743 117.611 83.3284Z" fill="#191939" transform="matrix(1.04963 0 0 1 382 293.05)"/><path d="M124.349 86.3009C124.349 84.3193 125.835 83.2294 127.321 83.2294 128.807 83.2294 130.393 84.3193 130.194 86.5982L125.339 86.5982C125.538 87.7872 126.429 88.4807 127.519 88.4807 128.213 88.4807 128.807 88.2826 129.303 87.7872L129.798 88.2826C129.303 88.9762 128.411 89.3725 127.42 89.3725 125.736 89.3725 124.349 88.2826 124.349 86.3009ZM129.204 85.9046C129.105 84.7156 128.213 84.022 127.222 84.022 126.231 84.022 125.339 84.6165 125.141 85.9046L129.204 85.9046Z" fill="#191939" transform="matrix(1.04963 0 0 1 382 293.05)"/><path d="M131.582 83.3284 132.572 83.3284 132.572 84.8147C132.771 83.9229 133.365 83.2294 134.455 83.2294 134.554 83.2294 134.653 83.2294 134.752 83.3284L134.752 84.2202C134.653 84.2202 134.554 84.2202 134.455 84.2202 133.365 84.2202 132.572 85.0128 132.572 86.4L132.572 89.3725 131.582 89.3725 131.582 83.3284Z" fill="#191939" transform="matrix(1.04963 0 0 1 382 293.05)"/><path d="M135.842 87.7872 136.635 87.589C136.833 88.1835 137.229 88.5798 137.923 88.5798 138.517 88.5798 139.013 88.2826 139.013 87.6881 139.013 87.1927 138.716 86.9945 138.022 86.6973L137.527 86.4991C136.536 86.1028 136.139 85.5083 136.139 84.8147 136.139 83.9229 136.932 83.2294 137.923 83.2294 138.815 83.2294 139.607 83.7248 139.806 84.5174L139.013 84.7156C138.815 84.2202 138.517 83.9229 137.923 83.9229 137.428 83.9229 137.031 84.2202 137.031 84.7156 137.031 85.1119 137.229 85.4092 137.923 85.6073L138.418 85.8055C139.31 86.2018 140.004 86.5982 140.004 87.589 140.004 88.778 139.013 89.2734 137.923 89.2734 136.833 89.3725 136.04 88.778 135.842 87.7872Z" fill="#191939" transform="matrix(1.04963 0 0 1 382 293.05)"/><path d="M141.49 81.1486 142.481 81.1486 142.481 82.0404 141.49 82.0404 141.49 81.1486ZM141.49 83.3284 142.481 83.3284 142.481 89.1743 141.49 89.1743 141.49 83.3284Z" fill="#191939" transform="matrix(1.04963 0 0 1 382 293.05)"/><path d="M149.119 89.2734 149.119 88.1835 149.119 88.1835C148.822 88.778 148.029 89.3725 146.939 89.3725 145.552 89.3725 144.066 88.2826 144.066 86.3009 144.066 84.3193 145.552 83.2294 146.939 83.2294 148.029 83.2294 148.822 83.8239 149.119 84.4184L149.119 84.4184 149.119 81.1486 150.11 81.1486 150.11 89.1743 149.119 89.2734 149.119 89.2734ZM147.039 88.4807C148.128 88.4807 149.119 87.7872 149.119 86.3009 149.119 84.8147 148.029 84.1211 147.039 84.1211 145.949 84.1211 144.958 84.8147 144.958 86.3009 144.859 87.7872 145.949 88.4807 147.039 88.4807Z" fill="#191939" transform="matrix(1.04963 0 0 1 382 293.05)"/><path d="M151.497 86.3009C151.497 84.3193 152.983 83.2294 154.371 83.2294 155.461 83.2294 156.253 83.8239 156.55 84.4184L156.55 84.4184 156.55 83.3284 157.541 83.3284 157.541 89.1743 156.55 89.1743 156.55 88.0844 156.55 88.0844C156.253 88.6789 155.461 89.2734 154.371 89.2734 152.983 89.3725 151.497 88.2826 151.497 86.3009ZM154.569 88.4807C155.659 88.4807 156.65 87.7872 156.65 86.3009 156.65 84.8147 155.56 84.1211 154.569 84.1211 153.479 84.1211 152.488 84.8147 152.488 86.3009 152.488 87.7872 153.578 88.4807 154.569 88.4807Z" fill="#191939" transform="matrix(1.04963 0 0 1 382 293.05)"/><path d="M164.279 89.2734 164.279 88.1835 164.279 88.1835C163.982 88.778 163.189 89.3725 162.099 89.3725 160.712 89.3725 159.226 88.2826 159.226 86.3009 159.226 84.3193 160.712 83.2294 162.099 83.2294 163.189 83.2294 163.982 83.8239 164.279 84.4184L164.279 84.4184 164.279 81.1486 165.27 81.1486 165.27 89.1743 164.279 89.2734 164.279 89.2734ZM162.198 88.4807C163.288 88.4807 164.279 87.7872 164.279 86.3009 164.279 84.8147 163.189 84.1211 162.198 84.1211 161.108 84.1211 160.117 84.8147 160.117 86.3009 160.117 87.7872 161.108 88.4807 162.198 88.4807Z" fill="#191939" transform="matrix(1.04963 0 0 1 382 293.05)"/><path d="M169.233 88.0844 170.224 87.0936C170.422 87.3908 170.818 87.7872 171.512 87.7872 171.908 87.7872 172.8 87.589 172.8 86.3009L172.8 81.1486 174.385 81.1486 174.385 86.4991C174.385 88.5798 172.998 89.2734 171.611 89.2734 170.521 89.3725 169.728 88.8771 169.233 88.0844Z" fill="#191939" transform="matrix(1.04963 0 0 1 382 293.05)"/><path d="M175.673 86.3009C175.673 84.3193 177.259 83.2294 178.745 83.2294 180.231 83.2294 181.817 84.3193 181.817 86.3009 181.817 88.2826 180.231 89.3725 178.745 89.3725 177.259 89.3725 175.673 88.2826 175.673 86.3009ZM178.745 87.9853C179.637 87.9853 180.33 87.3908 180.33 86.3009 180.33 85.211 179.538 84.6165 178.745 84.6165 177.853 84.6165 177.16 85.211 177.16 86.3009 177.16 87.3908 177.952 87.9853 178.745 87.9853Z" fill="#191939" transform="matrix(1.04963 0 0 1 382 293.05)"/><path d="M182.708 87.6881 183.897 87.3908C183.996 87.7872 184.294 88.1835 184.888 88.1835 185.284 88.1835 185.681 87.9853 185.681 87.589 185.681 87.2917 185.483 87.0936 185.086 86.8954L184.393 86.5982C183.402 86.3009 183.006 85.6073 183.006 84.9138 183.006 83.8239 183.897 83.2294 185.086 83.2294 186.176 83.2294 186.969 83.8239 187.167 84.7156L185.978 85.0128C185.78 84.5174 185.483 84.4184 185.185 84.4184 184.789 84.4184 184.591 84.6165 184.591 84.9138 184.591 85.1119 184.69 85.4092 185.185 85.5083L185.879 85.7064C186.572 86.0037 187.365 86.4 187.365 87.4899 187.365 88.6789 186.374 89.2734 185.086 89.2734 183.699 89.3725 182.906 88.778 182.708 87.6881Z" fill="#191939" transform="matrix(1.04963 0 0 1 382 293.05)"/><path d="M188.158 86.3009C188.158 84.3193 189.644 83.2294 191.13 83.2294 192.617 83.2294 194.301 84.3193 194.004 86.8954L189.644 86.8954C189.842 87.6881 190.536 88.0844 191.428 88.0844 192.022 88.0844 192.517 87.8862 192.914 87.589L193.607 88.2826C193.112 88.8771 192.22 89.3725 191.229 89.3725 189.644 89.3725 188.158 88.2826 188.158 86.3009ZM192.716 85.8055C192.617 85.0128 191.923 84.5174 191.229 84.5174 190.536 84.5174 189.842 84.9138 189.644 85.8055L192.716 85.8055ZM191.725 80.8514 192.914 80.8514 191.725 82.6349 190.536 82.6349 191.725 80.8514Z" fill="#191939" transform="matrix(1.04963 0 0 1 382 293.05)"/><path d="M198.066 85.211C198.066 82.7339 199.949 81.0495 202.228 81.0495 203.317 81.0495 204.606 81.4459 205.497 82.833L204.407 83.6257C203.912 82.833 203.119 82.5358 202.327 82.5358 200.939 82.5358 199.75 83.5266 199.75 85.211 199.75 86.8954 200.939 87.8862 202.327 87.8862 203.119 87.8862 203.912 87.589 204.407 86.7963L205.497 87.589C204.606 88.9762 203.317 89.3725 202.228 89.3725 199.949 89.3725 198.066 87.6881 198.066 85.211Z" fill="#191939" transform="matrix(1.04963 0 0 1 382 293.05)"/><path d="M206.389 86.3009C206.389 84.3193 207.875 83.2294 209.361 83.2294 210.848 83.2294 212.532 84.3193 212.235 86.8954L207.875 86.8954C208.073 87.6881 208.767 88.0844 209.659 88.0844 210.253 88.0844 210.749 87.8862 211.145 87.589L211.839 88.2826C211.343 88.8771 210.451 89.3725 209.461 89.3725 207.776 89.3725 206.389 88.2826 206.389 86.3009ZM210.848 85.8055C210.749 85.0128 210.055 84.5174 209.361 84.5174 208.668 84.5174 207.974 84.9138 207.776 85.8055L210.848 85.8055Z" fill="#191939" transform="matrix(1.04963 0 0 1 382 293.05)"/><path d="M213.226 86.3009C213.226 84.3193 214.811 83.2294 216.297 83.2294 217.387 83.2294 218.279 83.7248 218.873 84.7156L217.783 85.4092C217.486 84.9138 216.991 84.6165 216.396 84.6165 215.505 84.6165 214.811 85.211 214.811 86.3009 214.811 87.3908 215.604 87.9853 216.396 87.9853 216.991 87.9853 217.486 87.6881 217.783 87.1927L218.873 87.8862C218.279 88.8771 217.387 89.3725 216.297 89.3725 214.811 89.3725 213.226 88.2826 213.226 86.3009Z" fill="#191939" transform="matrix(1.04963 0 0 1 382 293.05)"/><path d="M220.261 81.1486 221.747 81.1486 221.747 82.4367 220.261 82.4367 220.261 81.1486ZM220.261 83.3284 221.747 83.3284 221.747 89.1743 220.261 89.1743 220.261 83.3284Z" fill="#191939" transform="matrix(1.04963 0 0 1 382 293.05)"/><path d="M223.332 81.1486 224.818 81.1486 224.818 89.1743 223.332 89.1743 223.332 81.1486Z" fill="#191939" transform="matrix(1.04963 0 0 1 382 293.05)"/><path d="M226.503 81.1486 227.989 81.1486 227.989 82.4367 226.503 82.4367 226.503 81.1486ZM226.503 83.3284 227.989 83.3284 227.989 89.1743 226.503 89.1743 226.503 83.3284Z" fill="#191939" transform="matrix(1.04963 0 0 1 382 293.05)"/><path d="M229.376 86.3009C229.376 84.3193 230.961 83.2294 232.448 83.2294 233.934 83.2294 235.519 84.3193 235.519 86.3009 235.519 88.2826 233.934 89.3725 232.448 89.3725 230.961 89.3725 229.376 88.2826 229.376 86.3009ZM232.448 87.9853C233.339 87.9853 234.033 87.3908 234.033 86.3009 234.033 85.211 233.24 84.6165 232.448 84.6165 231.655 84.6165 230.862 85.211 230.862 86.3009 230.862 87.3908 231.655 87.9853 232.448 87.9853Z" fill="#191939" transform="matrix(1.04963 0 0 1 382 293.05)"/><path d="M244.139 89.2734 244.139 88.4807 244.139 88.4807C244.04 88.778 243.347 89.3725 242.257 89.3725 240.87 89.3725 239.383 88.3817 239.383 86.3009 239.383 84.2202 240.87 83.2294 242.257 83.2294 243.347 83.2294 244.04 83.8239 244.139 84.1211L244.139 84.1211 244.139 81.1486 245.626 81.1486 245.626 89.1743 244.139 89.2734 244.139 89.2734ZM242.554 87.9853C243.446 87.9853 244.239 87.3908 244.239 86.3009 244.239 85.211 243.446 84.6165 242.554 84.6165 241.662 84.6165 240.87 85.211 240.87 86.3009 240.87 87.3908 241.662 87.9853 242.554 87.9853Z" fill="#191939" transform="matrix(1.04963 0 0 1 382 293.05)"/><path d="M247.013 86.3009C247.013 84.3193 248.499 83.2294 249.985 83.2294 251.472 83.2294 253.156 84.3193 252.859 86.8954L248.499 86.8954C248.697 87.6881 249.391 88.0844 250.283 88.0844 250.877 88.0844 251.372 87.8862 251.769 87.589L252.462 88.2826C251.967 88.8771 251.075 89.3725 250.084 89.3725 248.499 89.3725 247.013 88.2826 247.013 86.3009ZM251.472 85.8055C251.372 85.0128 250.679 84.5174 249.985 84.5174 249.292 84.5174 248.598 84.9138 248.4 85.8055L251.472 85.8055Z" fill="#191939" transform="matrix(1.04963 0 0 1 382 293.05)"/><path d="M254.246 81.1486 255.732 81.1486 255.732 89.1743 254.246 89.1743 254.246 81.1486Z" fill="#191939" transform="matrix(1.04963 0 0 1 382 293.05)"/><path d="M259.695 81.1486 261.38 81.1486 263.659 87.2917 265.938 81.1486 267.622 81.1486 264.55 89.1743 262.866 89.1743 259.695 81.1486Z" fill="#191939" transform="matrix(1.04963 0 0 1 382 293.05)"/><path d="M267.523 86.3009C267.523 84.2202 269.009 83.2294 270.396 83.2294 271.486 83.2294 272.18 83.8239 272.279 84.1211L272.279 84.1211 272.279 83.3284 273.765 83.3284 273.765 89.1743 272.279 89.1743 272.279 88.3817 272.279 88.3817C272.18 88.6789 271.486 89.2734 270.396 89.2734 269.009 89.3725 267.523 88.2826 267.523 86.3009ZM270.694 87.9853C271.585 87.9853 272.378 87.3908 272.378 86.3009 272.378 85.211 271.585 84.6165 270.694 84.6165 269.802 84.6165 269.009 85.211 269.009 86.3009 269.009 87.3908 269.802 87.9853 270.694 87.9853Z" fill="#191939" transform="matrix(1.04963 0 0 1 382 293.05)"/><path d="M275.45 81.1486 276.936 81.1486 276.936 89.1743 275.45 89.1743 275.45 81.1486Z" fill="#191939" transform="matrix(1.04963 0 0 1 382 293.05)"/><path d="M278.521 81.1486 280.007 81.1486 280.007 89.1743 278.521 89.1743 278.521 81.1486Z" fill="#191939" transform="matrix(1.04963 0 0 1 382 293.05)"/><path d="M281.395 86.3009C281.395 84.3193 282.881 83.2294 284.367 83.2294 285.853 83.2294 287.538 84.3193 287.24 86.8954L282.782 86.8954C282.98 87.6881 283.673 88.0844 284.565 88.0844 285.16 88.0844 285.655 87.8862 286.051 87.589L286.745 88.2826C286.25 88.8771 285.358 89.3725 284.367 89.3725 282.881 89.3725 281.395 88.2826 281.395 86.3009ZM285.853 85.8055C285.754 85.0128 285.061 84.5174 284.367 84.5174 283.673 84.5174 282.98 84.9138 282.782 85.8055L285.853 85.8055Z" fill="#191939" transform="matrix(1.04963 0 0 1 382 293.05)"/></g></svg>